# xmcd
#
# Track frame offsets:
#	150
#	4934
#	42612
#	48330
#	66186
#	71669
#	73266
#	73900
#	75763
#	77541
#	79508
#	85251
#	88018
#	97661
#	102219
#	105090
#	107094
#	111795
#	114078
#	118402
#	123240
#	128249
#	132637
#	135882
#	139129
#	143523
#	147588
#	151706
#	158154
#	199434
#	207856
#	211222
#	232138
#	238864
#	245501
#	249002
#	253813
#	256820
#	274089
#
# Disc length: 4799 seconds
#
# Revision: 0
# Processed by: cddbd v1.5.2PL0 Copyright (c) Steve Scherf et al.
# Submitted via: EZCDAudioConverter 2.1.7.1
#
DISCID=2412bd27
DTITLE=V/A - Black and Blue 1/4
DYEAR=1900
DGENRE=
TTITLE0=Leroy, Skillet and LaWanda - He Got Away
TTITLE1=Leroy, Skillet and LaWanda - Slack Jawed Leroy
TTITLE2=Leroy, Skillet and LaWanda - Republicans 23rd Psalms
TTITLE3=Leroy, Skillet and LaWanda - The Boss
TTITLE4=LaWanda Page - Married Couple
TTITLE5=LaWanda Page - Little Red Riding Hood
TTITLE6=LaWanda Page - Bustin' Cherries
TTITLE7=LaWanda Page - Three MFs
TTITLE8=LaWanda Page - The Buccaneer
TTITLE9=LaWanda Page - Toast To Hitler
TTITLE10=LaWanda Page - Old Grandpa
TTITLE11=LaWanda Page - It Had To Be You
TTITLE12=LaWanda Page - Raise The Dead
TTITLE13=LaWanda Page - After Supper
TTITLE14=LaWanda Page - Sister Smith
TTITLE15=LaWanda Page - Douche Powder
TTITLE16=LaWanda Page - Chew The Fat
TTITLE17=LaWanda Page - The Dying Whore
TTITLE18=LaWanda Page - Hannah The Whore
TTITLE19=LaWanda Page - Nite Shift
TTITLE20=LaWanda Page - Hangin' Tree
TTITLE21=Jimmy Thompson - Raped
TTITLE22=Jimmy Thompson - The Gonorrhea
TTITLE23=Jimmy Thompson - Dodgin' Dick
TTITLE24=Jimmy Thompson - Motel
TTITLE25=Jimmy Thompson - Thunder-Rain-Sleet-Snow
TTITLE26=Jimmy Thompson - Ain't No Pimp
TTITLE27=Jimmy Thompson - Hune Or Huly
TTITLE28=Jimmy Thompson - Jo-Jo Gun
TTITLE29=Jimmy Thompson - Chinese Detective
TTITLE30=Jimmy Thompson - I Can Taste It
TTITLE31=Jimmy Thompson - The Party
TTITLE32=Jimmy Thompson - Ass Crabs
TTITLE33=Jimmy Thompson - Hair Around It
TTITLE34=Jimmy Thompson - Chin Nuts
TTITLE35=Jimmy Thompson - Mexican Next Door
TTITLE36=Jimmy Thompson - Bitin' Dick
TTITLE37=Jimmy Thompson - Take It In The Ass
TTITLE38=Slappy White - Slappy White For Vice-President
EXTD=
EXTT0=
EXTT1=
EXTT2=
EXTT3=
EXTT4=
EXTT5=
EXTT6=
EXTT7=
EXTT8=
EXTT9=
EXTT10=
EXTT11=
EXTT12=
EXTT13=
EXTT14=
EXTT15=
EXTT16=
EXTT17=
EXTT18=
EXTT19=
EXTT20=
EXTT21=
EXTT22=
EXTT23=
EXTT24=
EXTT25=
EXTT26=
EXTT27=
EXTT28=
EXTT29=
EXTT30=
EXTT31=
EXTT32=
EXTT33=
EXTT34=
EXTT35=
EXTT36=
EXTT37=
EXTT38=
PLAYORDER=
